<svg xmlns="http://www.w3.org/2000/svg" viewBox="0 0 1200 980" font-family="ui-sans-serif, -apple-system, system-ui, sans-serif" text-rendering="geometricPrecision" shape-rendering="geometricPrecision">

  <defs>
    <marker id="arr-dark" viewBox="0 0 10 10" refX="9" refY="5" markerWidth="8" markerHeight="8" orient="auto">
      <path d="M0,0 L10,5 L0,10 z" fill="#334155"/>
    </marker>
    <marker id="arr-red" viewBox="0 0 10 10" refX="9" refY="5" markerWidth="8" markerHeight="8" orient="auto">
      <path d="M0,0 L10,5 L0,10 z" fill="#dc2626"/>
    </marker>
    <marker id="arr-teal" viewBox="0 0 10 10" refX="9" refY="5" markerWidth="8" markerHeight="8" orient="auto">
      <path d="M0,0 L10,5 L0,10 z" fill="#0891b2"/>
    </marker>
    <marker id="arr-violet" viewBox="0 0 10 10" refX="9" refY="5" markerWidth="8" markerHeight="8" orient="auto">
      <path d="M0,0 L10,5 L0,10 z" fill="#7c3aed"/>
    </marker>
  </defs>

  <!-- ===== TITLE ===== -->
  <rect x="0" y="0" width="1200" height="52" fill="#1e293b"/>
  <text x="600" y="32" text-anchor="middle" font-size="18" font-weight="700" fill="white">
    3단계 코드 실행 흐름 — Snapshot을 store에 잡아두고 HTTP로 꺼내쓰기 (2단계 + 저장·조회 두 흐름)
  </text>

  <!-- ===== Phase A header ===== -->
  <text x="20" y="82" font-size="14" font-weight="700" fill="#475569">
    Phase A — 앱 부팅 (대부분 1·2단계와 동일, 신규는 박스 2의 Store 빈 하나)
  </text>

  <!-- ===== Row 1: 4 boxes ===== -->

  <!-- Step 1: JVM start + Spring boot -->
  <g transform="translate(55, 95)">
    <rect width="250" height="290" fill="#ffedd5" stroke="#ea580c" stroke-width="2" rx="6"/>
    <circle cx="25" cy="28" r="14" fill="#ea580c"/>
    <text x="25" y="33" text-anchor="middle" font-size="13" font-weight="700" fill="white">1</text>
    <text x="48" y="32" font-size="11" font-weight="700" fill="#7c2d12">JVM 시작 + Spring 부팅</text>

    <text x="14" y="62" font-size="10" font-weight="700" fill="#7c2d12">트리거:</text>
    <text x="14" y="78" font-size="10" fill="#334155">./gradlew.bat bootRun</text>
    <text x="14" y="92" font-size="10" fill="#334155">또는 java -jar app.jar</text>

    <text x="14" y="115" font-size="10" font-weight="700" fill="#7c2d12">main 스레드가:</text>
    <text x="22" y="131" font-size="10" fill="#334155">- SpringApplication.run()</text>
    <text x="22" y="145" font-size="10" fill="#334155">- @Component / @RestController</text>
    <text x="22" y="159" font-size="10" fill="#334155">  스캔 시작</text>

    <rect x="14" y="172" width="222" height="68" fill="white" stroke="#fdba74" rx="3"/>
    <g font-family="ui-monospace, monospace" font-size="9" fill="#475569">
      <text x="18" y="186">@SpringBootApplication</text>
      <text x="18" y="199">class FuturesPaperTrading...</text>
      <text x="18" y="212">  public static void</text>
      <text x="18" y="225" fill="#16a34a" font-weight="700">  main(String[] args)</text>
      <text x="18" y="236" fill="#16a34a" font-weight="700">    { SpringApplication.run }</text>
    </g>

    <text x="125" y="262" text-anchor="middle" font-size="10" font-style="italic" fill="#9a3412">→ 빈 스캔으로 진행</text>
    <text x="125" y="278" text-anchor="middle" font-size="10" font-style="italic" fill="#9a3412">(1·2단계와 동일)</text>
  </g>

  <line x1="305" y1="240" x2="335" y2="240" stroke="#334155" stroke-width="3" marker-end="url(#arr-dark)"/>

  <!-- Step 2: NEW Store bean -->
  <g transform="translate(335, 95)">
    <rect width="250" height="290" fill="#ede9fe" stroke="#7c3aed" stroke-width="3" rx="6"/>
    <circle cx="25" cy="28" r="14" fill="#7c3aed"/>
    <text x="25" y="33" text-anchor="middle" font-size="13" font-weight="700" fill="white">2</text>
    <text x="48" y="32" font-size="11" font-weight="700" fill="#5b21b6">★ 3단계 NEW: 빈 1개 추가 ★</text>

    <text x="14" y="62" font-size="10" font-weight="700" fill="#5b21b6">Spring이 IoC 컨테이너에 만드는 빈:</text>

    <rect x="14" y="72" width="222" height="76" fill="white" stroke="#c4b5fd" rx="3"/>
    <g font-family="ui-monospace, monospace" font-size="9" fill="#475569">
      <text x="18" y="86">@Component</text>
      <text x="18" y="100" fill="#7c3aed" font-weight="700">LatestOrderBookSnapshotStore ★</text>
      <text x="18" y="114">  private final AtomicReference</text>
      <text x="18" y="126">    &lt;OrderBookSnapshot&gt; latest</text>
      <text x="18" y="138">      = new AtomicReference&lt;&gt;();</text>
    </g>

    <text x="14" y="166" font-size="10" font-weight="700" fill="#5b21b6">초기 상태:</text>
    <text x="22" y="182" font-size="10" fill="#334155">- latest.get() == null</text>
    <text x="22" y="196" font-size="10" fill="#334155">- (= 양동이가 비어있음)</text>

    <text x="14" y="220" font-size="10" font-weight="700" fill="#5b21b6">왜 AtomicReference?</text>
    <text x="22" y="234" font-size="10" fill="#334155">- Writer 1개(event loop)</text>
    <text x="22" y="248" font-size="10" fill="#334155">- Reader N개(HTTP 요청들)</text>
    <text x="22" y="262" font-size="10" fill="#334155">- 락 없이 참조 교체/조회</text>

    <line x1="14" y1="270" x2="236" y2="270" stroke="#7c3aed" stroke-dasharray="3,2"/>
    <text x="125" y="285" text-anchor="middle" font-size="10" font-weight="700" fill="#5b21b6">"지금 상태"를 담을 양동이</text>
  </g>

  <line x1="585" y1="240" x2="615" y2="240" stroke="#334155" stroke-width="3" marker-end="url(#arr-dark)"/>

  <!-- Step 3: event loops + 8080 listen -->
  <g transform="translate(615, 95)">
    <rect width="250" height="290" fill="#dcfce7" stroke="#16a34a" stroke-width="2" rx="6"/>
    <circle cx="25" cy="28" r="14" fill="#16a34a"/>
    <text x="25" y="33" text-anchor="middle" font-size="13" font-weight="700" fill="white">3</text>
    <text x="48" y="32" font-size="11" font-weight="700" fill="#14532d">event loop N개 + 8080 listen</text>

    <text x="14" y="62" font-size="10" fill="#334155">Reactor Netty 초기화 →</text>
    <text x="14" y="78" font-size="10" fill="#334155">main이 OS에게</text>
    <text x="14" y="94" font-size="10" font-family="ui-monospace, monospace" fill="#14532d">  new Thread().start() × N</text>
    <text x="14" y="110" font-size="10" fill="#334155">요청.</text>

    <g transform="translate(14, 122)">
      <g transform="translate(15, 25)">
        <circle r="10" fill="#fed7aa" stroke="#ea580c" stroke-width="1.5"/>
        <path d="M5,-5 L12,-11" stroke="#ea580c" stroke-width="2" stroke-linecap="round"/>
        <path d="M7,0 L14,0" stroke="#ea580c" stroke-width="2" stroke-linecap="round"/>
        <path d="M5,5 L12,11" stroke="#ea580c" stroke-width="2" stroke-linecap="round"/>
      </g>
      <g transform="translate(50, 25)">
        <circle r="10" fill="#fed7aa" stroke="#ea580c" stroke-width="1.5"/>
        <path d="M5,-5 L12,-11" stroke="#ea580c" stroke-width="2" stroke-linecap="round"/>
        <path d="M7,0 L14,0" stroke="#ea580c" stroke-width="2" stroke-linecap="round"/>
        <path d="M5,5 L12,11" stroke="#ea580c" stroke-width="2" stroke-linecap="round"/>
      </g>
      <g transform="translate(85, 25)">
        <circle r="10" fill="#fed7aa" stroke="#ea580c" stroke-width="1.5"/>
        <path d="M5,-5 L12,-11" stroke="#ea580c" stroke-width="2" stroke-linecap="round"/>
        <path d="M7,0 L14,0" stroke="#ea580c" stroke-width="2" stroke-linecap="round"/>
        <path d="M5,5 L12,11" stroke="#ea580c" stroke-width="2" stroke-linecap="round"/>
      </g>
      <text x="115" y="30" font-size="11" fill="#ea580c" font-weight="700">×N(≈8)</text>
    </g>

    <text x="14" y="192" font-size="10" fill="#475569">스레드 이름 예시:</text>
    <rect x="14" y="199" width="222" height="32" fill="white" stroke="#cbd5e1" rx="3"/>
    <g font-family="ui-monospace, monospace" font-size="9" fill="#475569">
      <text x="18" y="212">reactor-http-nio-1</text>
      <text x="18" y="224">reactor-http-nio-2  ...</text>
    </g>

    <text x="14" y="252" font-size="10" font-weight="700" fill="#14532d">selector가 8080에 도착할</text>
    <text x="14" y="266" font-size="10" font-weight="700" fill="#14532d">요청 무한 감시.</text>
    <text x="125" y="282" text-anchor="middle" font-size="10" font-style="italic" fill="#15803d">(1·2단계와 동일)</text>
  </g>

  <line x1="865" y1="240" x2="895" y2="240" stroke="#334155" stroke-width="3" marker-end="url(#arr-dark)"/>

  <!-- Step 4: POST → connect → Binance 연결 -->
  <g transform="translate(895, 95)">
    <rect width="250" height="290" fill="#fef2f2" stroke="#dc2626" stroke-width="2" rx="6"/>
    <circle cx="25" cy="28" r="14" fill="#dc2626"/>
    <text x="25" y="33" text-anchor="middle" font-size="13" font-weight="700" fill="white">4</text>
    <text x="48" y="32" font-size="11" font-weight="700" fill="#7f1d1d">POST → connect() → Binance 연결</text>

    <text x="14" y="62" font-size="10" fill="#334155">자동 connect 없음 → 사용자가</text>
    <text x="14" y="78" font-size="10" fill="#334155">POST 보내면 비로소 동작.</text>

    <rect x="14" y="88" width="222" height="50" fill="white" stroke="#fca5a5" rx="3"/>
    <g font-family="ui-monospace, monospace" font-size="9" fill="#475569">
      <text x="18" y="102" font-weight="700" fill="#dc2626">POST</text>
      <text x="18" y="115">/api/binance-futures/</text>
      <text x="18" y="128">btcusdt/depth/raw/start</text>
    </g>

    <text x="14" y="158" font-size="10" fill="#334155">→ event loop이 깨어남.</text>
    <text x="14" y="174" font-size="10" fill="#334155">→ WebFlux → Controller.start()</text>
    <text x="14" y="190" font-size="10" fill="#334155">→ Streamer.connect()</text>
    <text x="14" y="206" font-size="10" font-family="ui-monospace, monospace" fill="#581c87">  webSocketClient.execute(...)</text>
    <text x="14" y="222" font-size="10" font-family="ui-monospace, monospace" fill="#581c87">  ...subscribe()</text>

    <line x1="14" y1="234" x2="236" y2="234" stroke="#dc2626" stroke-dasharray="3,2"/>

    <text x="14" y="252" font-size="10" font-weight="700" fill="#7f1d1d">같은 event loop이 클라이언트로</text>
    <text x="14" y="268" font-size="10" font-weight="700" fill="#7f1d1d">변신 → fstream.binance.com과</text>
    <text x="14" y="282" font-size="10" font-weight="700" fill="#7f1d1d">WebSocket 연결 성공.</text>
  </g>

  <!-- ===== Phase divider ===== -->
  <line x1="20" y1="410" x2="1180" y2="410" stroke="#7c3aed" stroke-width="2" stroke-dasharray="8,4"/>
  <text x="600" y="430" text-anchor="middle" font-size="12" font-weight="700" fill="#7c3aed">
    ⬇ 여기서부터 3단계의 진짜 신규 — 서로 다른 박자의 두 흐름(메시지 push / HTTP pull)이 같은 store 객체에서 만난다
  </text>

  <!-- Phase B header -->
  <text x="20" y="455" font-size="14" font-weight="700" fill="#475569">
    Phase B — 두 흐름이 store에서 교차 (좌측: ingest 100ms마다 / 우측: query 사용자 임의 시점)
  </text>

  <!-- 두 흐름 라벨 -->
  <rect x="55" y="465" width="530" height="20" fill="#dcfce7" stroke="#16a34a" stroke-width="1" rx="3"/>
  <text x="320" y="479" text-anchor="middle" font-size="11" font-weight="700" fill="#14532d">흐름 ① Ingest (Writer) — 100ms마다 자동</text>

  <rect x="615" y="465" width="530" height="20" fill="#fef2f2" stroke="#dc2626" stroke-width="1" rx="3"/>
  <text x="880" y="479" text-anchor="middle" font-size="11" font-weight="700" fill="#7f1d1d">흐름 ② Query (Reader) — 사용자 임의 시점</text>

  <!-- ===== Row 2: 4 boxes ===== -->

  <!-- Step 5: 흐름①-1 메시지 도착 → parse (2단계 그대로) -->
  <g transform="translate(55, 495)">
    <rect width="250" height="290" fill="#cffafe" stroke="#0891b2" stroke-width="2" rx="6"/>
    <circle cx="25" cy="28" r="14" fill="#0891b2"/>
    <text x="25" y="33" text-anchor="middle" font-size="13" font-weight="700" fill="white">5</text>
    <text x="48" y="32" font-size="11" font-weight="700" fill="#155e75">메시지 도착 → parse (2단계 그대로)</text>

    <text x="14" y="62" font-size="10" fill="#334155">100ms마다 raw JSON 1줄 푸시:</text>
    <rect x="14" y="70" width="222" height="44" fill="white" stroke="#67e8f9" rx="3"/>
    <g font-family="ui-monospace, monospace" font-size="9" fill="#475569">
      <text x="18" y="84">{"e":"depthUpdate",</text>
      <text x="18" y="96"> "s":"BTCUSDT","E":...,</text>
      <text x="18" y="108"> "b":[[...]], "a":[[...]]}</text>
    </g>

    <text x="14" y="132" font-size="10" font-weight="700" fill="#155e75">event loop이 깨어나 처리:</text>

    <rect x="14" y="140" width="222" height="106" fill="white" stroke="#67e8f9" rx="3"/>
    <g font-family="ui-monospace, monospace" font-size="9" fill="#475569">
      <text x="18" y="154">session.receive()</text>
      <text x="18" y="167">  .map(getPayloadAsText)</text>
      <text x="18" y="180">  .doOnNext(message -&gt;</text>
      <text x="18" y="192">    log.info("raw JSON: {}"))</text>
      <text x="18" y="208">  .doOnNext(</text>
      <text x="18" y="220" fill="#0891b2" font-weight="700">    this::logParsedSnapshot)</text>
      <text x="18" y="235" fill="#94a3b8">  // → 박스 6으로 점프</text>
    </g>

    <text x="14" y="266" font-size="10" font-style="italic" fill="#155e75">parser.parse(message) →</text>
    <text x="14" y="282" font-size="10" font-style="italic" fill="#155e75">OrderBookSnapshot 즉석 생성</text>
  </g>

  <line x1="305" y1="640" x2="335" y2="640" stroke="#7c3aed" stroke-width="3" marker-end="url(#arr-violet)"/>

  <!-- Step 6: ★ NEW: latestStore.update(snapshot) ★ -->
  <g transform="translate(335, 495)">
    <rect width="250" height="290" fill="#ede9fe" stroke="#7c3aed" stroke-width="3" rx="6"/>
    <circle cx="25" cy="28" r="14" fill="#7c3aed"/>
    <text x="25" y="33" text-anchor="middle" font-size="13" font-weight="700" fill="white">6</text>
    <text x="48" y="32" font-size="11" font-weight="700" fill="#5b21b6">★ NEW: store.update(snapshot) ★</text>

    <text x="14" y="62" font-size="10" font-weight="700" fill="#5b21b6">파싱 직후, 양동이에 박아둠:</text>

    <rect x="14" y="72" width="222" height="120" fill="white" stroke="#c4b5fd" rx="3"/>
    <g font-family="ui-monospace, monospace" font-size="9" fill="#475569">
      <text x="18" y="86">private void</text>
      <text x="18" y="98">logParsedSnapshot(String msg) {</text>
      <text x="18" y="111">  try {</text>
      <text x="18" y="124">    OrderBookSnapshot snapshot</text>
      <text x="18" y="136">      = snapshotParser.parse(msg);</text>
      <text x="18" y="151" fill="#7c3aed" font-weight="700">    latestStore.update(snapshot);</text>
      <text x="18" y="166">    log.info("Parsed: {}", ...);</text>
      <text x="18" y="179">  } catch (Exception e) { ... }</text>
      <text x="18" y="190">}</text>
    </g>

    <text x="14" y="212" font-size="10" font-weight="700" fill="#dc2626">★ 왜 "파싱 직후" ★</text>
    <text x="14" y="226" font-size="10" fill="#334155">try 끝나면 지역변수 참조 끊김</text>
    <text x="14" y="240" font-size="10" fill="#334155">→ GC가 곧 회수 → 영원히 사라짐.</text>
    <text x="14" y="254" font-size="10" fill="#334155">이 순간만 store에 박을 기회.</text>

    <line x1="14" y1="262" x2="236" y2="262" stroke="#7c3aed" stroke-dasharray="3,2"/>
    <text x="125" y="278" text-anchor="middle" font-size="10" font-weight="700" fill="#5b21b6">AtomicReference.set() — 1줄, 락 X</text>
  </g>

  <!-- 두 흐름 사이 구분선 -->
  <line x1="600" y1="495" x2="600" y2="785" stroke="#94a3b8" stroke-width="1" stroke-dasharray="4,3"/>
  <text x="600" y="488" text-anchor="middle" font-size="9" font-style="italic" fill="#64748b">두 흐름은 서로 다른 박자 · 서로 다른 스레드</text>

  <!-- Step 7: 흐름②-1 HTTP GET 도착 (NEW flow) -->
  <g transform="translate(615, 495)">
    <rect width="250" height="290" fill="#fef2f2" stroke="#dc2626" stroke-width="2" rx="6"/>
    <circle cx="25" cy="28" r="14" fill="#dc2626"/>
    <text x="25" y="33" text-anchor="middle" font-size="13" font-weight="700" fill="white">7</text>
    <text x="48" y="32" font-size="11" font-weight="700" fill="#7f1d1d">★ NEW 흐름: GET /depth/latest 도착</text>

    <text x="14" y="62" font-size="10" fill="#334155">사용자가 임의 시점에 보냄:</text>
    <rect x="14" y="70" width="222" height="46" fill="white" stroke="#fca5a5" rx="3"/>
    <g font-family="ui-monospace, monospace" font-size="9" fill="#475569">
      <text x="18" y="84" font-weight="700" fill="#dc2626">GET</text>
      <text x="18" y="97">/api/binance-futures/</text>
      <text x="18" y="110">btcusdt/depth/latest</text>
    </g>

    <text x="14" y="138" font-size="10" font-weight="700" fill="#7f1d1d">8080을 듣던 event loop이</text>
    <text x="14" y="152" font-size="10" font-weight="700" fill="#7f1d1d">selector에서 감지 → 깨어남:</text>

    <text x="22" y="174" font-size="10" fill="#334155">- HTTP 헤더/URL 파싱</text>
    <text x="22" y="188" font-size="10" fill="#334155">- WebFlux 라우팅</text>
    <text x="22" y="202" font-size="10" fill="#334155">- @GetMapping 매칭 →</text>
    <text x="22" y="216" font-size="10" font-family="ui-monospace, monospace" fill="#7c3aed" font-weight="700">  Controller.latest() 호출</text>

    <line x1="14" y1="228" x2="236" y2="228" stroke="#dc2626" stroke-dasharray="3,2"/>

    <text x="14" y="247" font-size="10" font-style="italic" fill="#7f1d1d">★ 흐름① 메시지와는</text>
    <text x="14" y="261" font-size="10" font-style="italic" fill="#7f1d1d">  무관한 박자에 도착 ★</text>
    <text x="14" y="280" font-size="10" font-style="italic" fill="#7f1d1d">메시지 사이 99ms 공백에도 와도 OK.</text>
  </g>

  <line x1="865" y1="640" x2="895" y2="640" stroke="#7c3aed" stroke-width="3" marker-end="url(#arr-violet)"/>

  <!-- Step 8: ★ NEW: store.latest() → JSON 응답 ★ -->
  <g transform="translate(895, 495)">
    <rect width="250" height="290" fill="#ede9fe" stroke="#7c3aed" stroke-width="3" rx="6"/>
    <circle cx="25" cy="28" r="14" fill="#7c3aed"/>
    <text x="25" y="33" text-anchor="middle" font-size="13" font-weight="700" fill="white">8</text>
    <text x="48" y="32" font-size="11" font-weight="700" fill="#5b21b6">★ NEW: store.latest() → JSON ★</text>

    <text x="14" y="62" font-size="10" font-weight="700" fill="#5b21b6">Controller가 양동이 들여다봄:</text>

    <rect x="14" y="72" width="222" height="100" fill="white" stroke="#c4b5fd" rx="3"/>
    <g font-family="ui-monospace, monospace" font-size="9" fill="#475569">
      <text x="18" y="86" fill="#9333ea" font-weight="700">@GetMapping(".../depth/latest")</text>
      <text x="18" y="99">public ResponseEntity&lt;</text>
      <text x="18" y="111">    OrderBookSnapshot&gt; latest() {</text>
      <text x="18" y="125">  return latestStore</text>
      <text x="18" y="138" fill="#7c3aed" font-weight="700">    .latest()</text>
      <text x="18" y="151">    .map(ResponseEntity::ok)</text>
      <text x="18" y="164">    .orElseGet(()-&gt;notFound());</text>
    </g>

    <text x="14" y="192" font-size="10" font-weight="700" fill="#5b21b6">두 갈래 응답:</text>
    <text x="22" y="208" font-size="10" fill="#16a34a" font-weight="700">- 있음 → 200 OK + JSON</text>
    <text x="22" y="222" font-size="10" fill="#dc2626" font-weight="700">- 없음 → 404 Not Found</text>

    <line x1="14" y1="232" x2="236" y2="232" stroke="#7c3aed" stroke-dasharray="3,2"/>

    <text x="14" y="250" font-size="10" font-style="italic" fill="#5b21b6">Jackson이 record 자동 직렬화 →</text>
    <text x="14" y="264" font-size="10" font-style="italic" fill="#5b21b6">필드명이 그대로 JSON 키:</text>
    <rect x="14" y="270" width="222" height="14" fill="white" stroke="#cbd5e1" rx="2"/>
    <text x="18" y="281" font-family="ui-monospace, monospace" font-size="8" fill="#475569">{"symbol":"BTCUSDT","eventTime":...}</text>
  </g>

  <!-- store 객체를 두 흐름이 공유한다는 시각 표시 -->
  <g transform="translate(460, 800)">
    <rect width="280" height="38" fill="#ede9fe" stroke="#7c3aed" stroke-width="2" rx="6"/>
    <text x="140" y="17" text-anchor="middle" font-size="11" font-weight="700" fill="#5b21b6">박스 6과 박스 8이 들여다보는 store는</text>
    <text x="140" y="32" text-anchor="middle" font-size="11" font-weight="700" fill="#5b21b6">메모리상 같은 객체 1개 (싱글톤 빈)</text>
  </g>
  <path d="M 460 819 Q 380 760 360 720" stroke="#7c3aed" stroke-width="1.5" fill="none" stroke-dasharray="3,2" marker-end="url(#arr-violet)"/>
  <path d="M 740 819 Q 880 760 920 720" stroke="#7c3aed" stroke-width="1.5" fill="none" stroke-dasharray="3,2" marker-end="url(#arr-violet)"/>

  <!-- ===== Bottom summary ===== -->
  <rect x="30" y="852" width="1140" height="120" fill="#faf5ff" stroke="#7c3aed" stroke-width="2" rx="8"/>
  <text x="600" y="877" text-anchor="middle" font-size="14" font-weight="700" fill="#5b21b6">★ 3단계 흐름 한 문장으로 ★</text>

  <text x="600" y="903" text-anchor="middle" font-size="13" fill="#334155">
    부팅·POST·WebSocket 연결·메시지 파싱은 <tspan font-weight="700" fill="#0891b2">1·2단계 그대로</tspan>. 신규는 단 두 곳 —
    <tspan font-weight="700" fill="#5b21b6">박스 2의 LatestOrderBookSnapshotStore 빈</tspan>과
  </text>
  <text x="600" y="924" text-anchor="middle" font-size="13" fill="#334155">
    <tspan font-weight="700" fill="#5b21b6">박스 6의 한 줄 store.update(snapshot)</tspan>·<tspan font-weight="700" fill="#5b21b6">박스 8의 한 줄 store.latest()</tspan>.
    이 셋이 합쳐 <tspan font-weight="700" fill="#16a34a">push 흐름(흐름①)</tspan>이 메시지를 양동이에 채우고,
  </text>
  <text x="600" y="945" text-anchor="middle" font-size="13" fill="#334155">
    <tspan font-weight="700" fill="#dc2626">pull 흐름(흐름②)</tspan>이 사용자 임의 시점에 그 양동이를 들여다본다 — <tspan font-weight="700" fill="#5b21b6">서로 다른 박자·서로 다른 스레드</tspan>가 같은 store 객체에서 만난다.
  </text>
  <text x="600" y="966" text-anchor="middle" font-size="12" font-style="italic" fill="#64748b">
    앱이 비로소 "상태"를 가진다 — 메시지가 흘러간 다음에도 마지막 한 장은 살아남는다. 이게 차트·주문 매칭·모니터링이 자라날 토대.
  </text>

</svg>
